<?xml version="1.0" standalone="no"?>
<!DOCTYPE svg PUBLIC "-//W3C//DTD SVG 20010904//EN"
 "http://www.w3.org/TR/2001/REC-SVG-20010904/DTD/svg10.dtd">
<svg version="1.0" xmlns="http://www.w3.org/2000/svg"
 width="700.000000pt" height="700.000000pt" viewBox="0 0 700.000000 700.000000"
 preserveAspectRatio="xMidYMid meet">
<metadata>
Created by potrace 1.14, written by Peter Selinger 2001-2017
</metadata>
<g transform="translate(0.000000,700.000000) scale(0.100000,-0.100000)"
fill="#000000" stroke="none">
<path d="M0 3500 l0 -3500 170 0 170 0 2 3079 3 3080 21 27 c11 15 33 37 48
48 27 21 40 21 550 24 578 3 579 3 626 -58 16 -20 140 -316 296 -707 l268
-673 31 0 c43 0 114 -38 147 -80 38 -48 48 -113 48 -314 l0 -171 112 -280 113
-280 5 1105 5 1105 29 42 c18 27 46 51 79 68 l51 25 721 0 721 0 52 -26 c39
-19 59 -38 80 -72 l27 -47 5 -1263 5 -1263 564 1407 c320 796 575 1419 588
1435 14 16 41 33 61 39 23 6 230 10 547 10 510 0 511 0 555 -22 27 -14 50 -36
62 -58 17 -33 18 -153 18 -3107 l0 -3073 110 0 110 0 0 3500 0 3500 -3500 0
-3500 0 0 -3500z"/>
<path d="M540 3030 l0 -3030 315 0 315 0 0 1153 c1 1111 -1 1195 -37 2360 -35
1147 -36 1210 -20 1240 27 50 74 77 135 77 45 0 57 -5 88 -32 39 -36 -79 248
1334 -3235 l634 -1563 255 0 256 1 963 2378 c530 1308 972 2392 982 2409 24
39 95 67 146 57 44 -8 99 -59 110 -101 5 -16 -9 -616 -29 -1334 -35 -1219 -38
-1375 -37 -2357 l0 -1053 315 0 315 0 0 3030 0 3030 -452 -2 -453 -3 -990
-2471 c-544 -1359 -998 -2482 -1008 -2497 -52 -80 -187 -77 -237 5 -10 17
-463 1142 -1007 2499 l-988 2469 -452 0 -453 0 0 -3030z"/>
<path d="M2810 4518 l0 -1323 373 -932 c204 -513 374 -933 377 -933 3 0 143
346 313 768 l307 767 0 1488 0 1487 -685 0 -685 0 0 -1322z"/>
<path d="M5801 4378 c-5 -14 -57 -142 -115 -286 -58 -144 -106 -266 -106 -271
0 -7 40 -11 110 -11 l110 0 0 43 c1 23 5 155 9 292 5 138 7 252 5 254 -2 2 -8
-7 -13 -21z"/>
<path d="M1311 4345 c-1 -16 13 -451 29 -965 28 -872 30 -1018 30 -2157 l0
-1223 400 0 400 0 0 1129 0 1129 -421 1039 c-232 571 -425 1047 -430 1058 -6
17 -8 15 -8 -10z"/>
<path d="M5191 2866 l-301 -743 0 -1062 0 -1061 430 0 430 0 0 1113 c0 882 4
1245 20 1757 11 355 20 666 20 693 l0 47 -149 0 -148 0 -302 -744z"/>
<path d="M2381 873 l-1 -873 115 0 115 0 0 591 0 590 -106 262 c-58 144 -110
271 -114 282 -5 11 -9 -372 -9 -852z"/>
<path d="M4532 1246 l-152 -375 0 -435 0 -436 155 0 155 0 0 810 c0 446 -1
810 -3 810 -2 0 -72 -169 -155 -374z"/>
<path d="M2811 338 l-1 -338 136 0 c125 0 136 1 131 17 -3 14 -190 474 -257
638 -5 11 -9 -129 -9 -317z"/>
<path d="M4103 180 l-71 -180 74 0 74 0 0 180 c0 99 -1 180 -2 180 -2 0 -35
-81 -75 -180z"/>
</g>
</svg>
