<?xml version="1.0" encoding="utf-8"?>
<svg version="1.1" id="Layer1" xmlns="http://www.w3.org/2000/svg" xmlns:xlink="http://www.w3.org/1999/xlink" x="0px" y="0px"
	 viewBox="0 0 1024 1024" style="enable-background:new 0 0 1024 1024;" xml:space="preserve">
<style type="text/css">
	.st0{clip-path:url(#SVGID_00000059283882378378617310000017440959385344516766_);fill:#00405E;}
	
		.st1{clip-path:url(#SVGID_00000059283882378378617310000017440959385344516766_);fill:#1CA996;stroke:#F6F6F6;stroke-width:29;stroke-miterlimit:10;}
	
		.st2{clip-path:url(#SVGID_00000059283882378378617310000017440959385344516766_);fill:#EE705E;stroke:#F6F6F6;stroke-width:29;stroke-miterlimit:10;}
	
		.st3{clip-path:url(#SVGID_00000059283882378378617310000017440959385344516766_);fill:#0A8BA8;stroke:#F6F6F6;stroke-width:29;stroke-miterlimit:10;}
	.st4{clip-path:url(#SVGID_00000059283882378378617310000017440959385344516766_);}
	.st5{fill:#00405E;stroke:#F6F6F6;stroke-width:29;stroke-miterlimit:10;}
</style>
<g>
	<defs>
		<rect id="SVGID_1_" width="1024" height="1024"/>
	</defs>
	<clipPath id="SVGID_00000174583213617670074130000014643254920344999586_">
		<use xlink:href="#SVGID_1_"  style="overflow:visible;"/>
	</clipPath>
	
		<rect style="clip-path:url(#SVGID_00000174583213617670074130000014643254920344999586_);fill:#00405E;" width="1024" height="1024"/>
	
		<path style="clip-path:url(#SVGID_00000174583213617670074130000014643254920344999586_);fill:#1CA996;stroke:#F6F6F6;stroke-width:29;stroke-miterlimit:10;" d="
		M318.02,1039.26h-200c-8.28,0-15-6.72-15-15V348.35c0-8.28,6.72-15,15-15h200c8.28,0,15,6.72,15,15v675.91
		C333.02,1032.55,326.3,1039.26,318.02,1039.26z"/>
	
		<path style="clip-path:url(#SVGID_00000174583213617670074130000014643254920344999586_);fill:#EE705E;stroke:#F6F6F6;stroke-width:29;stroke-miterlimit:10;" d="
		M611.23,1050.22h-200c-8.28,0-15-6.72-15-15v-865.3c0-8.28,6.72-15,15-15h200c8.28,0,15,6.72,15,15v865.3
		C626.23,1043.5,619.51,1050.22,611.23,1050.22z"/>
	
		<path style="clip-path:url(#SVGID_00000174583213617670074130000014643254920344999586_);fill:#0A8BA8;stroke:#F6F6F6;stroke-width:29;stroke-miterlimit:10;" d="
		M915.72,1050.22h-200c-8.28,0-15-6.72-15-15V495.48c0-8.28,6.72-15,15-15h200c8.28,0,15,6.72,15,15v539.74
		C930.72,1043.5,924.01,1050.22,915.72,1050.22z"/>
	<g style="clip-path:url(#SVGID_00000174583213617670074130000014643254920344999586_);">
		<path class="st5" d="M222.77,127.43l291.6,727.78c2.35,5.85,10.63,5.85,12.98,0l291.58-727.78c1.06-2.65,3.63-4.39,6.49-4.39
			h145.13c3.86,0,6.99,3.13,6.99,6.99v903.21c0,3.86-3.13,6.99-6.99,6.99H863.59c-3.86,0-6.99-3.13-6.99-6.99V683.07l10.2-346.65
			c0.23-7.79-10.54-10.06-13.47-2.83l-284.71,702.29c-1.07,2.64-3.63,4.36-6.48,4.36h-83.19c-2.85,0-5.41-1.73-6.48-4.36
			l-284-700.24c-2.93-7.23-13.71-4.95-13.47,2.85l10.75,344.59v350.18c0,3.86-3.13,6.99-6.99,6.99H71.79
			c-3.86,0-6.99-3.13-6.99-6.99V130.03c0-3.86,3.13-6.99,6.99-6.99h144.49C219.14,123.04,221.7,124.78,222.77,127.43z"/>
	</g>
	
		<rect y="1024" style="clip-path:url(#SVGID_00000174583213617670074130000014643254920344999586_);fill:#00405E;" width="1024" height="51.26"/>
</g>
</svg>
